<svg width="22" height="24" viewBox="0 0 22 24" fill="none" xmlns="http://www.w3.org/2000/svg">
<path fill-rule="evenodd" clip-rule="evenodd" d="M13.07 1.19487C13.2254 1.46531 13.3257 1.76382 13.3652 2.0732C13.4047 2.38258 13.3826 2.69672 13.3002 2.99752C13.2177 3.29832 13.0765 3.57983 12.8848 3.82584C12.6931 4.07184 12.4546 4.27747 12.183 4.43087L5.073 8.47087C4.98099 8.52306 4.90441 8.59864 4.85102 8.68996C4.79763 8.78128 4.76934 8.88509 4.769 8.99087V15.3339C4.76934 15.4397 4.79763 15.5435 4.85102 15.6348C4.90441 15.7261 4.98099 15.8017 5.073 15.8539L10.701 19.0529C10.7921 19.1047 10.8952 19.1319 11 19.1319C11.1048 19.1319 11.2079 19.1047 11.299 19.0529L16.927 15.8549C17.0192 15.8026 17.0958 15.7269 17.1492 15.6354C17.2026 15.5438 17.2308 15.4398 17.231 15.3339V11.3899L12.171 14.2279C11.6204 14.5369 10.97 14.6157 10.3616 14.4471C9.75313 14.2785 9.23603 13.8762 8.923 13.3279C8.76928 13.0566 8.67074 12.7576 8.63305 12.4482C8.59536 12.1387 8.61926 11.8248 8.70337 11.5246C8.78749 11.2243 8.93016 10.9437 9.12317 10.6989C9.31618 10.454 9.55572 10.2498 9.828 10.0979L17.067 6.03587C19.272 4.79987 22 6.38287 22 8.90087V15.8149C22 17.4349 21.127 18.9299 19.713 19.7339L13.252 23.4049C12.5655 23.7948 11.7895 23.9998 11 23.9998C10.2105 23.9998 9.43451 23.7948 8.748 23.4049L2.287 19.7339C1.59342 19.3411 1.01636 18.7714 0.614615 18.083C0.212869 17.3946 0.00079447 16.612 0 15.8149V8.50987C0 6.88987 0.873 5.39487 2.287 4.59187L9.817 0.311873C10.366 -0.000109702 11.0161 -0.0823635 11.6255 0.0830506C12.2348 0.248465 12.7541 0.648127 13.07 1.19487Z" fill="url(#paint0_linear_1_77)"/>
<defs>
<linearGradient id="paint0_linear_1_77" x1="16.558" y1="3.62887" x2="5.356" y2="21.3399" gradientUnits="userSpaceOnUse">
<stop stop-color="#FFB45B"/>
<stop offset="1" stop-color="#FF8A00"/>
</linearGradient>
</defs>
</svg>
