<svg width="92" height="23" viewBox="0 0 92 23" fill="none" xmlns="http://www.w3.org/2000/svg">
<path d="M65.316 8.82022C63.9772 8.82022 63.0217 9.28008 62.5545 10.1522L62.3025 10.6227V9.04751H60.1237V18.6305H62.418V12.9325C62.418 11.5688 63.153 10.7865 64.434 10.7865C65.6572 10.7865 66.3555 11.5477 66.3555 12.8744V18.6358H68.6497V12.4568C68.6445 10.1787 67.4002 8.82022 65.316 8.82022ZM54.2017 8.82022C51.498 8.82022 49.818 10.5169 49.818 13.2549V14.6028C49.818 17.2298 51.5137 18.8631 54.2385 18.8631C56.0602 18.8631 57.3412 18.1918 58.1445 16.8069L56.7217 15.9824C56.1285 16.7805 55.1782 17.2774 54.2385 17.2774C52.8577 17.2774 52.0335 16.4211 52.0335 14.9834V14.6028H58.4332V13.0118C58.4332 10.4641 56.7742 8.82022 54.2017 8.82022ZM56.349 13.0488H52.0335V12.8215C52.0335 11.2411 52.8052 10.3742 54.2017 10.3742C55.5457 10.3742 56.349 11.2305 56.349 12.6682V13.0488ZM91.3979 7.46708V5.63294H83.4757V7.46708H86.253V16.7964H83.4757V18.6305H91.3979V16.7964H88.6207V7.46708H91.3979ZM31.3065 5.36865C27.768 5.36865 25.5683 7.58865 25.5683 11.1671V13.1017C25.5683 16.6801 27.768 18.9001 31.3065 18.9001C34.845 18.9001 37.0448 16.6801 37.0448 13.1017V11.1671C37.0448 7.59394 34.845 5.36865 31.3065 5.36865ZM34.677 13.2338C34.677 15.6071 33.4485 16.9708 31.3065 16.9708C29.1645 16.9708 27.936 15.6071 27.936 13.2338V11.0349C27.936 8.66165 29.1645 7.29794 31.3065 7.29794C33.4485 7.29794 34.677 8.66165 34.677 11.0349V13.2338ZM44.2425 8.82022C43.0403 8.82022 42.0008 9.32237 41.4548 10.1628L41.208 10.5434V9.04751H39.0293V21.9288H41.3235V17.2615L41.5703 17.6262C42.0848 18.3979 43.0928 18.8578 44.2635 18.8578C46.2375 18.8578 48.2325 17.5575 48.2325 14.6504V13.0224C48.2325 10.9345 46.9987 8.82022 44.2425 8.82022ZM45.9382 14.5394C45.9382 16.0828 45.0405 17.0448 43.602 17.0448C42.258 17.0448 41.3235 16.0299 41.3235 14.5764V13.1387C41.3235 11.6639 42.2685 10.6332 43.623 10.6332C45.051 10.6332 45.9435 11.5952 45.9435 13.1387V14.5394H45.9382ZM74.976 5.63822L70.3455 18.6358H72.6712L73.5585 15.8502H78.8767L78.8872 15.8767L79.764 18.6358H82.0897L77.4592 5.63822H74.976ZM74.136 14.0108L76.2202 7.44065L78.2835 14.0108H74.136Z" fill="black"/>
<path d="M21.0848 9.26419C21.5888 7.71019 21.4208 6.0769 20.607 4.65504C19.3785 2.50904 16.9425 1.42018 14.538 1.9329C13.4565 0.717184 11.9655 0.0458984 10.3328 0.0458984C7.8705 0.0458984 5.718 1.62633 4.95675 3.97847C3.366 4.31676 2.04826 5.27876 1.23451 6.70062C0.00600532 8.84662 0.284255 11.5159 1.92751 13.3553C1.42351 14.9093 1.59151 16.5426 2.40526 17.9645C3.63376 20.1105 6.06976 21.1993 8.47426 20.6866C9.55575 21.9023 11.0468 22.5736 12.6795 22.5736C15.1418 22.5736 17.2943 20.9932 18.0555 18.6411C19.6463 18.3028 20.964 17.3408 21.7778 15.9189C23.0063 13.7729 22.728 11.1036 21.0848 9.26419ZM12.6743 21.0989C11.6873 21.0989 10.737 20.7501 9.9915 20.1211C10.023 20.0999 10.086 20.0682 10.128 20.0471L14.5853 17.4571C14.8163 17.3249 14.9528 17.0871 14.9528 16.8175V10.4958L16.8375 11.5899C16.8638 11.6058 16.8743 11.6269 16.8743 11.6428V16.8809C16.869 19.2066 14.9895 21.0989 12.6743 21.0989ZM3.6705 17.2245C3.177 16.3629 2.9985 15.3586 3.17175 14.3966C3.20325 14.4178 3.261 14.4495 3.303 14.4759L7.76025 17.0659C7.99125 17.1981 8.26425 17.1981 8.49 17.0659L13.929 13.9051V16.0986C13.929 16.1303 13.9133 16.1515 13.9028 16.1568L9.39825 18.7732C7.39275 19.9361 4.8255 19.2436 3.6705 17.2245ZM2.49451 7.43533C2.98801 6.57376 3.765 5.91833 4.6785 5.58533C4.6785 5.62233 4.6785 5.69104 4.6785 5.73862V10.9186C4.6785 11.1829 4.815 11.4208 5.046 11.5582L10.485 14.7191L8.595 15.8132C8.56875 15.8291 8.5425 15.8238 8.532 15.8185L4.0275 13.2021C2.02726 12.0392 1.33951 9.45448 2.49451 7.43533ZM17.9663 11.0613L12.5273 7.90047L14.412 6.80633C14.4383 6.79047 14.4645 6.79047 14.475 6.80105L18.9795 9.41748C20.9798 10.5803 21.6675 13.1703 20.5125 15.1842C20.019 16.0458 19.242 16.7012 18.3285 17.0342C18.3285 16.9972 18.3285 16.9285 18.3285 16.8809V11.7009C18.3338 11.4313 18.192 11.1935 17.9663 11.0613ZM19.8405 8.2229C19.809 8.20176 19.7513 8.17005 19.7093 8.14362L15.252 5.55362C15.021 5.42147 14.748 5.42147 14.5223 5.55362L9.08325 8.71447V6.52619C9.08325 6.49447 9.099 6.47333 9.1095 6.46805L13.614 3.85162C14.2703 3.47104 14.9948 3.28604 15.7035 3.28604C17.1525 3.28604 18.5648 4.0419 19.3418 5.39504C19.83 6.25133 20.0085 7.25562 19.8405 8.2229ZM8.0595 12.1238L6.17475 11.0296C6.1485 11.0138 6.138 10.9926 6.138 10.9768V5.73862C6.138 4.61276 6.57375 3.55562 7.3665 2.75747C8.15926 1.95933 9.20925 1.52061 10.3275 1.52061C11.3145 1.52061 12.2648 1.86947 13.0103 2.49847C12.9788 2.51961 12.9158 2.55133 12.8738 2.57247L8.4165 5.16247C8.1855 5.29462 8.04901 5.53247 8.04901 5.80204L8.0595 12.1238ZM9.08325 9.90376L11.5035 8.49776L13.9238 9.90376V12.7158L11.5035 14.1218L9.08325 12.7158V9.90376Z" fill="black"/>
</svg>
